<svg width="110" height="40" viewBox="0 0 110 40" fill="none" xmlns="http://www.w3.org/2000/svg">
<path fill-rule="evenodd" clip-rule="evenodd" d="M36.5429 32.4017V36.5429H3.32969V3.32969H36.5393L36.5429 12.2707H39.8726V0H0V39.8726H39.8726V32.4017H36.5429ZM63.5007 16.9432C64.4323 17.8967 64.8945 19.1885 64.8945 20.8661V28.7882H61.5648V21.2773C61.5648 19.5488 60.5604 18.6208 59.0175 18.6208C57.2889 18.6208 56.179 19.6761 56.179 21.8195V28.7882H52.8493V9.96725H56.179V17.329C56.9796 16.1172 58.2678 15.5095 60.0255 15.5095C61.3362 15.4654 62.6024 15.9878 63.5007 16.9432ZM16.7467 28.7882L10.6805 10.7205H14.5524L18.9665 24.607L23.3333 10.7205H27.2344L21.139 28.7882H16.7467ZM36.5429 15.8843H39.8726V28.7882H36.5429V27.3326C35.7424 28.5444 34.4541 29.1521 32.6965 29.1521C31.3785 29.1958 30.1037 28.6788 29.1885 27.7293C28.2824 26.7758 27.8202 25.484 27.8202 23.8064V15.8843H31.1499V23.3952C31.1499 25.1237 32.1543 26.0517 33.6972 26.0517C35.4258 26.0517 36.5357 24.9964 36.5357 22.853L36.5429 15.8843ZM47.3908 19.083H50.302L50.2948 15.8843H47.3836V12.2707L44.0539 13.2787V15.8843H41.8086V19.083H44.0539V24.4541C44.0539 27.9876 45.7314 29.3049 50.302 28.7882V25.7678C48.3988 25.8734 47.3908 25.8479 47.3908 24.4541V19.083ZM77.5582 15.8843H80.8879V28.7882H77.5582V27.2671C76.5502 28.5298 75.1565 29.1485 73.3515 29.1485C71.6577 29.1672 70.0387 28.4519 68.9119 27.187C66.4673 24.4249 66.4673 20.2731 68.9119 17.5109C70.036 16.2394 71.6544 15.5151 73.3515 15.524C75.171 15.524 76.5502 16.1426 77.5582 17.4054V15.8843ZM73.9702 25.9753C74.9212 26.0049 75.8426 25.6416 76.5175 24.9709C77.2113 24.2733 77.5855 23.3196 77.5509 22.3362C77.5907 21.3606 77.2152 20.4138 76.5175 19.7307C75.0947 18.3628 72.8456 18.3628 71.4229 19.7307C70.7439 20.4244 70.3795 21.3663 70.4148 22.3362C70.383 23.3143 70.7463 24.2639 71.4229 24.9709C72.0978 25.6416 73.0191 26.0049 73.9702 25.9753ZM85.2131 27.1887C86.4978 28.4734 88.2488 29.1819 90.0655 29.1521V29.1558C93.1817 29.1769 95.9198 27.0926 96.7291 24.0833C97.5384 21.0739 96.2152 17.8974 93.5088 16.3526C90.8023 14.8078 87.3944 15.2837 85.2147 17.5109C83.9207 18.7785 83.2093 20.5253 83.2496 22.3362C83.2198 24.1529 83.9283 25.9039 85.2131 27.1887ZM92.5691 24.8908C91.9107 25.5598 91.0038 25.925 90.0655 25.8988C89.1273 25.9245 88.2205 25.5595 87.5619 24.8908C86.2645 23.4404 86.2645 21.2467 87.5619 19.7962C88.9605 18.4524 91.1705 18.4524 92.5691 19.7962C93.9042 21.232 93.9042 23.455 92.5691 24.8908ZM109.651 25.8224H99.6834V29.1521H109.651V25.8224ZM57.4172 39.8096C57.7405 39.9365 58.0938 40 58.477 40C58.8697 40 59.2301 39.9329 59.5583 39.7988C59.8864 39.6647 60.1654 39.4683 60.3953 39.2097L59.9283 38.757C59.7367 38.963 59.5211 39.1151 59.2816 39.2133C59.0422 39.3115 58.7859 39.3606 58.5129 39.3606C58.2303 39.3606 57.968 39.3127 57.7262 39.2169C57.4843 39.1211 57.2747 38.987 57.0975 38.8145C56.9203 38.6421 56.7826 38.4373 56.6844 38.2002C56.5862 37.9631 56.5371 37.7057 56.5371 37.4279C56.5371 37.1501 56.5862 36.8926 56.6844 36.6555C56.7826 36.4184 56.9203 36.2137 57.0975 36.0412C57.2747 35.8688 57.4843 35.7347 57.7262 35.6389C57.968 35.5431 58.2303 35.4952 58.5129 35.4952C58.7859 35.4952 59.0422 35.5443 59.2816 35.6425C59.5211 35.7407 59.7367 35.8904 59.9283 36.0915L60.3953 35.6389C60.1654 35.3802 59.8864 35.1851 59.5583 35.0533C59.2301 34.9216 58.8721 34.8558 58.4841 34.8558C58.101 34.8558 57.7477 34.9192 57.4244 35.0462C57.1011 35.1731 56.8197 35.3527 56.5802 35.585C56.3407 35.8173 56.1539 36.0891 56.0198 36.4005C55.8857 36.7118 55.8186 37.0543 55.8186 37.4279C55.8186 37.8015 55.8857 38.144 56.0198 38.4553C56.1539 38.7666 56.3395 39.0384 56.5766 39.2708C56.8137 39.5031 57.0939 39.6827 57.4172 39.8096ZM45.1021 39.9425V35.5383H43.3778V34.9132H47.5377V35.5383H45.8134V39.9425H45.1021ZM53.521 39.3175H50.5897V37.6937H53.1115V37.083H50.5897V35.5383H53.4204V34.9132H49.8712V39.9425H53.521V39.3175ZM50.5897 37.083V37.6937H50.525V37.083H50.5897ZM63.6915 39.9425H62.9731V34.9132H63.6915V37.0758H63.6197V37.7009H63.6915V39.9425ZM66.5798 37.7009H63.6915V37.0758H66.5798V37.7009ZM66.5798 37.7009H66.6444V37.0758H66.5798V34.9132H67.2982V39.9425H66.5798V37.7009ZM70.9465 34.9132H70.3574V39.9425H71.0759V36.195L74.0934 39.9425H74.6826V34.9132H73.9641V38.6608L70.9465 34.9132ZM78.9452 39.806C79.2733 39.9353 79.6289 40 80.0121 40C80.3953 40 80.7486 39.9365 81.0719 39.8096C81.3952 39.6827 81.6778 39.5031 81.9197 39.2708C82.1615 39.0384 82.3483 38.7666 82.4801 38.4553C82.6118 38.144 82.6776 37.8015 82.6776 37.4279C82.6776 37.0543 82.6118 36.7118 82.4801 36.4005C82.3483 36.0891 82.1615 35.8173 81.9197 35.585C81.6778 35.3527 81.3952 35.1731 81.0719 35.0462C80.7486 34.9192 80.3953 34.8558 80.0121 34.8558C79.6241 34.8558 79.2673 34.9204 78.9416 35.0497C78.6159 35.1791 78.3333 35.3599 78.0938 35.5922C77.8543 35.8245 77.6675 36.0963 77.5334 36.4077C77.3993 36.719 77.3322 37.0591 77.3322 37.4279C77.3322 37.7967 77.3993 38.1368 77.5334 38.4481C77.6675 38.7594 77.8543 39.0313 78.0938 39.2636C78.3333 39.4959 78.6171 39.6767 78.9452 39.806ZM80.7845 39.2169C80.5474 39.3127 80.2899 39.3606 80.0121 39.3606C79.7295 39.3606 79.4697 39.3127 79.2326 39.2169C78.9955 39.1211 78.7883 38.9858 78.6111 38.8109C78.4339 38.6361 78.2962 38.4313 78.198 38.1966C78.0998 37.9619 78.0507 37.7057 78.0507 37.4279C78.0507 37.1501 78.0998 36.8938 78.198 36.6591C78.2962 36.4244 78.4339 36.2197 78.6111 36.0448C78.7883 35.87 78.9955 35.7347 79.2326 35.6389C79.4697 35.5431 79.7295 35.4952 80.0121 35.4952C80.2899 35.4952 80.5474 35.5431 80.7845 35.6389C81.0216 35.7347 81.2275 35.87 81.4024 36.0448C81.5772 36.2197 81.7137 36.4244 81.8119 36.6591C81.9101 36.8938 81.9592 37.1501 81.9592 37.4279C81.9592 37.7057 81.9101 37.9619 81.8119 38.1966C81.7137 38.4313 81.5772 38.6361 81.4024 38.8109C81.2275 38.9858 81.0216 39.1211 80.7845 39.2169ZM86.0457 34.9132H85.3273V39.9425H88.7687V39.3175H86.0457V34.9132ZM92.2554 39.806C92.5835 39.9353 92.9391 40 93.3223 40C93.7055 40 94.0588 39.9365 94.3821 39.8096C94.7054 39.6827 94.988 39.5031 95.2299 39.2708C95.4717 39.0384 95.6585 38.7666 95.7903 38.4553C95.922 38.144 95.9878 37.8015 95.9878 37.4279C95.9878 37.0543 95.922 36.7118 95.7903 36.4005C95.6585 36.0891 95.4717 35.8173 95.2299 35.585C94.988 35.3527 94.7054 35.1731 94.3821 35.0462C94.0588 34.9192 93.7055 34.8558 93.3223 34.8558C92.9343 34.8558 92.5775 34.9204 92.2518 35.0497C91.9261 35.1791 91.6435 35.3599 91.404 35.5922C91.1645 35.8245 90.9777 36.0963 90.8436 36.4077C90.7095 36.719 90.6424 37.0591 90.6424 37.4279C90.6424 37.7967 90.7095 38.1368 90.8436 38.4481C90.9777 38.7594 91.1645 39.0313 91.404 39.2636C91.6435 39.4959 91.9273 39.6767 92.2554 39.806ZM94.0947 39.2169C93.8576 39.3127 93.6001 39.3606 93.3223 39.3606C93.0397 39.3606 92.7799 39.3127 92.5428 39.2169C92.3057 39.1211 92.0985 38.9858 91.9213 38.8109C91.7441 38.6361 91.6064 38.4313 91.5082 38.1966C91.41 37.9619 91.3609 37.7057 91.3609 37.4279C91.3609 37.1501 91.41 36.8938 91.5082 36.6591C91.6064 36.4244 91.7441 36.2197 91.9213 36.0448C92.0985 35.87 92.3057 35.7347 92.5428 35.6389C92.7799 35.5431 93.0397 35.4952 93.3223 35.4952C93.6001 35.4952 93.8576 35.5431 94.0947 35.6389C94.3318 35.7347 94.5377 35.87 94.7126 36.0448C94.8874 36.2197 95.0239 36.4244 95.1221 36.6591C95.2203 36.8938 95.2694 37.1501 95.2694 37.4279C95.2694 37.7057 95.2203 37.9619 95.1221 38.1966C95.0239 38.4313 94.8874 38.6361 94.7126 38.8109C94.5377 38.9858 94.3318 39.1211 94.0947 39.2169ZM100.908 40C100.52 40 100.163 39.9365 99.8373 39.8096C99.5116 39.6827 99.229 39.5031 98.9895 39.2708C98.75 39.0384 98.5632 38.7666 98.4291 38.4553C98.295 38.144 98.228 37.8015 98.228 37.4279C98.228 37.0543 98.295 36.7118 98.4291 36.4005C98.5632 36.0891 98.7512 35.8173 98.9931 35.585C99.235 35.3527 99.5188 35.1731 99.8445 35.0462C100.17 34.9192 100.529 34.8558 100.922 34.8558C101.32 34.8558 101.684 34.9204 102.014 35.0497C102.345 35.1791 102.625 35.3731 102.855 35.6317L102.409 36.0772C102.203 35.876 101.98 35.7287 101.738 35.6353C101.496 35.5419 101.234 35.4952 100.951 35.4952C100.664 35.4952 100.397 35.5431 100.15 35.6389C99.9032 35.7347 99.69 35.8688 99.5104 36.0412C99.3308 36.2137 99.1919 36.4184 99.0937 36.6555C98.9955 36.8926 98.9464 37.1501 98.9464 37.4279C98.9464 37.7009 98.9955 37.956 99.0937 38.1931C99.1919 38.4301 99.3308 38.6361 99.5104 38.8109C99.69 38.9858 99.902 39.1211 100.146 39.2169C100.391 39.3127 100.656 39.3606 100.944 39.3606C101.212 39.3606 101.469 39.3187 101.716 39.2348C101.857 39.1869 101.993 39.1204 102.122 39.0356V39.2672L102.812 39.3606C102.563 39.5713 102.272 39.7306 101.939 39.8383C101.606 39.9461 101.262 40 100.908 40ZM102.812 39.3606V37.3991H102.122V39.0356C102.219 38.9722 102.312 38.8985 102.402 38.8145L102.812 39.3606ZM106.949 39.9425V38.1913L104.951 34.9132H105.72L107.33 37.5665L108.946 34.9132H109.657L107.66 38.2022V39.9425H106.949ZM91.9068 9.77802C91.9068 11.1547 93.0229 12.2707 94.3996 12.2707C95.7763 12.2707 96.8923 11.1547 96.8923 9.77802C96.8923 8.40133 95.7763 7.2853 94.3996 7.2853C93.0229 7.2853 91.9068 8.40133 91.9068 9.77802ZM92.2162 9.7853C92.2162 8.57944 93.1937 7.60189 94.3996 7.60189V7.59098C94.9805 7.59097 95.5376 7.8225 95.9473 8.23433C96.3571 8.64617 96.5859 9.20433 96.583 9.7853C96.583 10.9912 95.6054 11.9687 94.3996 11.9687C93.1937 11.9687 92.2162 10.9912 92.2162 9.7853ZM94.8435 11.1063L94.3086 10.182H93.9119V11.1063H93.3879V8.44978H94.4505C94.6847 8.44881 94.9096 8.54117 95.0756 8.70643C95.2415 8.87168 95.3348 9.09623 95.3348 9.33042C95.3278 9.66619 95.128 9.9679 94.8217 10.1055L95.4076 11.1063H94.8435ZM93.9119 8.92285V9.70524H94.4505C94.652 9.68579 94.8057 9.51647 94.8057 9.31405C94.8057 9.11162 94.652 8.94231 94.4505 8.92285H93.9119Z" fill="#002485"/>
</svg>
