<?xml version="1.0" encoding="UTF-8"?>
<svg width="288px" height="106px" viewBox="0 0 288 106" version="1.1" xmlns="http://www.w3.org/2000/svg" xmlns:xlink="http://www.w3.org/1999/xlink">
    <title>Combined Shape</title>
    <g id="Page-1" stroke="none" stroke-width="1" fill="none" fill-rule="evenodd">
        <g id="LOGO-VuThao" transform="translate(-570.000000, -556.000000)" fill="#002485" fill-rule="nonzero">
            <path d="M674.665666,556.65 L674.665666,588.860699 L665.925218,588.860699 L665.915666,565.390448 L578.740448,565.390448 L578.740448,652.575218 L665.925218,652.575218 L665.925218,641.704585 L674.665666,641.704585 L674.665666,661.315666 L570,661.315666 L570,556.65 L674.665666,556.65 Z M651.768559,598.346234 L651.768559,618.062391 C651.768559,622.599782 654.405022,625.035644 658.45524,625.035644 C662.992631,625.035644 665.906114,622.265448 665.906114,616.639083 L665.925218,598.346234 L674.665666,598.346234 L674.665666,632.21905 L665.925218,632.21905 L665.925218,628.39809 C663.82369,631.579039 660.44214,633.17429 655.82833,633.17429 C652.368498,633.288987 649.022195,631.931721 646.619814,629.439301 C644.241266,626.936572 643.028111,623.545469 643.028111,619.141812 L643.028111,598.346234 L651.768559,598.346234 Z M608.200055,584.791376 L619.787118,621.243341 L631.25,584.791376 L641.490175,584.791376 L625.489902,632.21905 L613.960153,632.21905 L598.036299,584.791376 L608.200055,584.791376 Z M702.042849,606.742795 L694.400928,606.742795 L694.400928,620.84214 C694.400928,624.50071 697.046943,624.567576 702.042849,624.290557 L702.042849,632.21905 C690.045033,633.575491 685.641376,630.117522 685.641376,620.84214 L685.641376,606.742795 L679.747544,606.742795 L679.747544,598.346234 L685.641376,598.346234 L685.641376,591.506714 L694.381823,588.860699 L694.381823,598.346234 L702.023745,598.346234 L702.042849,606.742795 Z M736.68941,601.125983 C739.134825,603.628712 740.34798,607.019814 740.34798,611.423472 L740.34798,632.21905 L731.607533,632.21905 L731.607533,612.502893 C731.607533,607.965502 728.97107,605.52964 724.920852,605.52964 C720.383461,605.52964 717.469978,608.299836 717.469978,613.926201 L717.469978,632.21905 L708.729531,632.21905 L708.729531,582.814028 L717.469978,582.814028 L717.469978,602.138537 C719.571507,598.957587 722.953057,597.362336 727.566867,597.362336 C731.007463,597.246606 734.331306,598.617908 736.68941,601.125983 Z M773.590338,598.346234 L782.330786,598.346234 L782.330786,632.21905 L773.590338,632.21905 L773.590338,628.226146 C770.944323,631.54083 767.285753,633.164738 762.547762,633.164738 C758.101463,633.213916 753.851496,631.336267 750.893832,628.015993 C744.476576,620.765369 744.476576,609.866782 750.893832,602.616157 C753.84454,599.278329 758.092739,597.377086 762.547762,597.400331 C767.323963,597.400331 770.944323,599.024454 773.590338,602.339138 L773.590338,598.346234 Z M764.17167,624.835044 C766.668234,624.91286 769.086695,623.959296 770.858352,622.198581 C772.679771,620.367388 773.661823,617.863849 773.571234,615.282642 C773.675636,612.721608 772.689839,610.236289 770.858352,608.443122 C767.123627,604.852434 761.219714,604.852434 757.484989,608.443122 C755.702831,610.263931 754.746265,612.7365 754.838974,615.282642 C754.755245,617.84995 755.708999,620.342795 757.484989,622.198581 C759.256646,623.959296 761.675107,624.91286 764.17167,624.835044 L764.17167,624.835044 Z M806.421943,633.17429 C801.653217,633.252568 797.056784,631.392707 793.684331,628.020254 C790.311878,624.647801 788.452017,620.051368 788.530295,615.282642 C788.424352,610.528864 790.291715,605.943448 793.688592,602.616157 C799.410188,596.769781 808.356154,595.520426 815.460555,599.575578 C822.564957,603.63073 826.038365,611.968993 823.913853,619.868565 C821.78934,627.768136 814.602023,633.239302 806.421943,633.183843 L806.421943,633.17429 Z M806.421943,624.634443 C808.884971,624.703077 811.265654,623.744575 812.993996,621.988428 C816.498446,618.219389 816.498446,612.384105 812.993996,608.615066 C809.322671,605.087481 803.521215,605.087481 799.849891,608.615066 C796.444444,612.422471 796.444444,618.181023 799.849891,621.988428 C801.578886,623.743595 803.959124,624.701917 806.421943,624.634443 Z M831.668941,624.433843 L857.832969,624.433843 L857.832969,633.17429 L831.668941,633.17429 Z M688.392983,661.499122 L688.392983,649.938057 L683.866629,649.938057 L683.866629,648.297254 L694.786459,648.297254 L694.786459,649.938057 L690.260105,649.938057 L690.260105,661.499122 L688.392983,661.499122 Z M702.62817,653.992917 L709.417702,653.992917 L709.417702,655.596001 L702.62817,655.596001 L702.62817,653.992917 Z M702.797909,659.858318 L710.492712,659.858318 L710.492712,661.499122 L700.911928,661.499122 L700.911928,648.297254 L710.228674,648.297254 L710.228674,649.938057 L702.797909,649.938057 L702.797909,659.858318 Z M723.502011,661.65 C722.496154,661.65 721.56888,661.483405 720.720189,661.150215 C719.871497,660.817025 719.135965,660.34553 718.513591,659.735729 C717.891217,659.125929 717.404005,658.412399 717.051956,657.595141 C716.699906,656.777882 716.523881,655.878898 716.523881,654.898188 C716.523881,653.917477 716.699906,653.018493 717.051956,652.201235 C717.404005,651.383976 717.89436,650.670447 718.523021,650.060646 C719.151681,649.450845 719.890357,648.97935 720.739049,648.64616 C721.58774,648.31297 722.515014,648.146375 723.520871,648.146375 C724.539301,648.146375 725.479148,648.319257 726.340413,648.66502 C727.201677,649.010783 727.934067,649.523141 728.537581,650.202095 L727.311693,651.390263 C726.808765,650.862188 726.24297,650.469275 725.61431,650.211524 C724.985649,649.953774 724.312983,649.824898 723.59631,649.824898 C722.854491,649.824898 722.166108,649.95063 721.531161,650.202095 C720.896214,650.453559 720.346136,650.805609 719.880927,651.258244 C719.415719,651.710879 719.054239,652.248384 718.796488,652.870758 C718.538737,653.493132 718.409862,654.168942 718.409862,654.898188 C718.409862,655.627434 718.538737,656.303244 718.796488,656.925617 C719.054239,657.547991 719.415719,658.085496 719.880927,658.538131 C720.346136,658.990767 720.896214,659.342816 721.531161,659.594281 C722.166108,659.845745 722.854491,659.971477 723.59631,659.971477 C724.312983,659.971477 724.985649,659.842601 725.61431,659.584851 C726.24297,659.3271 726.808765,658.927901 727.311693,658.387253 L728.537581,659.575421 C727.934067,660.254374 727.201677,660.769875 726.340413,661.121925 C725.479148,661.473975 724.533014,661.65 723.502011,661.65 Z M744.771908,648.297254 L746.657889,648.297254 L746.657889,661.499122 L744.771908,661.499122 L744.771908,648.297254 Z M737.190263,661.499122 L735.304282,661.499122 L735.304282,648.297254 L737.190263,648.297254 L737.190263,661.499122 Z M744.941646,655.61486 L737.001665,655.61486 L737.001665,653.974057 L744.941646,653.974057 L744.941646,655.61486 Z M754.688198,661.499122 L754.688198,648.297254 L756.234702,648.297254 L764.966795,659.141645 L764.155823,659.141645 L764.155823,648.297254 L766.041804,648.297254 L766.041804,661.499122 L764.4953,661.499122 L755.763207,650.65473 L756.574179,650.65473 L756.574179,661.499122 L754.688198,661.499122 Z M780.031814,661.65 C779.025957,661.65 778.092396,661.480262 777.231132,661.140785 C776.369867,660.801308 775.624904,660.32667 774.996244,659.716869 C774.367584,659.107069 773.877229,658.393539 773.525179,657.576281 C773.173129,656.759022 772.997104,655.866325 772.997104,654.898188 C772.997104,653.930051 773.173129,653.037353 773.525179,652.220094 C773.877229,651.402836 774.367584,650.689306 774.996244,650.079506 C775.624904,649.469705 776.366724,648.995067 777.221702,648.65559 C778.07668,648.316113 779.013384,648.146375 780.031814,648.146375 C781.03767,648.146375 781.964944,648.31297 782.813636,648.64616 C783.662327,648.97935 784.404147,649.450845 785.039094,650.060646 C785.674041,650.670447 786.164396,651.383976 786.510159,652.201235 C786.855922,653.018493 787.028804,653.917477 787.028804,654.898188 C787.028804,655.878898 786.855922,656.777882 786.510159,657.595141 C786.164396,658.412399 785.674041,659.125929 785.039094,659.735729 C784.404147,660.34553 783.662327,660.817025 782.813636,661.150215 C781.964944,661.483405 781.03767,661.65 780.031814,661.65 Z M780.031814,659.971477 C780.76106,659.971477 781.43687,659.845745 782.059243,659.594281 C782.681617,659.342816 783.222265,658.987623 783.681187,658.528701 C784.140109,658.069779 784.498446,657.532275 784.756196,656.916187 C785.013947,656.3001 785.142823,655.627434 785.142823,654.898188 C785.142823,654.168942 785.013947,653.496275 784.756196,652.880188 C784.498446,652.264101 784.140109,651.726596 783.681187,651.267674 C783.222265,650.808752 782.681617,650.453559 782.059243,650.202095 C781.43687,649.95063 780.76106,649.824898 780.031814,649.824898 C779.289994,649.824898 778.607898,649.95063 777.985524,650.202095 C777.36315,650.453559 776.819359,650.808752 776.354151,651.267674 C775.888942,651.726596 775.527462,652.264101 775.269711,652.880188 C775.011961,653.496275 774.883085,654.168942 774.883085,654.898188 C774.883085,655.627434 775.011961,656.3001 775.269711,656.916187 C775.527462,657.532275 775.888942,658.069779 776.354151,658.528701 C776.819359,658.987623 777.36315,659.342816 777.985524,659.594281 C778.607898,659.845745 779.289994,659.971477 780.031814,659.971477 Z M793.984104,661.499122 L793.984104,648.297254 L795.870085,648.297254 L795.870085,659.858318 L803.017953,659.858318 L803.017953,661.499122 L793.984104,661.499122 Z M814.971103,661.65 C813.965246,661.65 813.031686,661.480262 812.170421,661.140785 C811.309156,660.801308 810.564194,660.32667 809.935533,659.716869 C809.306873,659.107069 808.816518,658.393539 808.464468,657.576281 C808.112418,656.759022 807.936393,655.866325 807.936393,654.898188 C807.936393,653.930051 808.112418,653.037353 808.464468,652.220094 C808.816518,651.402836 809.306873,650.689306 809.935533,650.079506 C810.564194,649.469705 811.306013,648.995067 812.160991,648.65559 C813.015969,648.316113 813.952673,648.146375 814.971103,648.146375 C815.97696,648.146375 816.904234,648.31297 817.752925,648.64616 C818.601617,648.97935 819.343436,649.450845 819.978383,650.060646 C820.61333,650.670447 821.103685,651.383976 821.449448,652.201235 C821.795211,653.018493 821.968093,653.917477 821.968093,654.898188 C821.968093,655.878898 821.795211,656.777882 821.449448,657.595141 C821.103685,658.412399 820.61333,659.125929 819.978383,659.735729 C819.343436,660.34553 818.601617,660.817025 817.752925,661.150215 C816.904234,661.483405 815.97696,661.65 814.971103,661.65 Z M814.971103,659.971477 C815.700349,659.971477 816.376159,659.845745 816.998533,659.594281 C817.620907,659.342816 818.161554,658.987623 818.620477,658.528701 C819.079399,658.069779 819.437735,657.532275 819.695486,656.916187 C819.953237,656.3001 820.082112,655.627434 820.082112,654.898188 C820.082112,654.168942 819.953237,653.496275 819.695486,652.880188 C819.437735,652.264101 819.079399,651.726596 818.620477,651.267674 C818.161554,650.808752 817.620907,650.453559 816.998533,650.202095 C816.376159,649.95063 815.700349,649.824898 814.971103,649.824898 C814.229284,649.824898 813.547187,649.95063 812.924814,650.202095 C812.30244,650.453559 811.758649,650.808752 811.29344,651.267674 C810.828231,651.726596 810.466751,652.264101 810.209001,652.880188 C809.95125,653.496275 809.822375,654.168942 809.822375,654.898188 C809.822375,655.627434 809.95125,656.3001 810.209001,656.916187 C810.466751,657.532275 810.828231,658.069779 811.29344,658.528701 C811.758649,658.987623 812.30244,659.342816 812.924814,659.594281 C813.547187,659.845745 814.229284,659.971477 814.971103,659.971477 Z M834.883093,661.65 C833.864663,661.65 832.927959,661.483405 832.072981,661.150215 C831.218003,660.817025 830.476184,660.34553 829.847524,659.735729 C829.218863,659.125929 828.728508,658.412399 828.376458,657.595141 C828.024409,656.777882 827.848384,655.878898 827.848384,654.898188 C827.848384,653.917477 828.024409,653.018493 828.376458,652.201235 C828.728508,651.383976 829.222007,650.670447 829.856954,650.060646 C830.491901,649.450845 831.236863,648.97935 832.091841,648.64616 C832.946819,648.31297 833.88981,648.146375 834.920813,648.146375 C835.964389,648.146375 836.919953,648.316113 837.787504,648.65559 C838.655055,648.995067 839.390588,649.504282 839.994102,650.183235 L838.824794,651.352543 C838.284146,650.824468 837.696348,650.437842 837.061401,650.192665 C836.426454,649.947487 835.738071,649.824898 834.996252,649.824898 C834.24186,649.824898 833.540903,649.95063 832.893383,650.202095 C832.245863,650.453559 831.686355,650.805609 831.21486,651.258244 C830.743365,651.710879 830.378742,652.248384 830.120991,652.870758 C829.86324,653.493132 829.734365,654.168942 829.734365,654.898188 C829.734365,655.61486 829.86324,656.284384 830.120991,656.906757 C830.378742,657.529131 830.743365,658.069779 831.21486,658.528701 C831.686355,658.987623 832.24272,659.342816 832.883953,659.594281 C833.525187,659.845745 834.223,659.971477 834.977392,659.971477 C835.681492,659.971477 836.357302,659.861461 837.004822,659.64143 C837.652342,659.421399 838.252713,659.053633 838.805934,658.538131 L839.880943,659.971477 C839.227136,660.524698 838.463314,660.942757 837.589476,661.225654 C836.715638,661.508551 835.813511,661.65 834.883093,661.65 Z M838.070401,659.726299 L838.070401,654.822748 L839.880943,654.822748 L839.880943,659.971477 L838.070401,659.726299 Z M850.740224,661.499122 L850.740224,656.444692 L851.174,657.614 L845.497196,648.297254 L847.515196,648.297254 L852.286729,656.161795 L851.19286,656.161795 L855.983252,648.297254 L857.850373,648.297254 L852.192429,657.614 L852.607345,656.444692 L852.607345,661.499122 L850.740224,661.499122 Z M817.798854,575.773908 C821.412671,575.773908 824.342249,578.703486 824.342249,582.317303 C824.342249,585.931121 821.412671,588.860699 817.798854,588.860699 C814.185036,588.860699 811.255459,585.931121 811.255459,582.317303 C811.255459,578.703486 814.185036,575.773908 817.798854,575.773908 Z M817.798854,576.57631 L817.798854,576.604967 C814.633466,576.604967 812.067413,579.171021 812.067413,582.336408 C812.067413,585.501796 814.633466,588.067849 817.798854,588.067849 C820.964241,588.067849 823.530367,585.501796 823.530367,582.336408 C823.53792,580.811376 822.937441,579.346189 821.86176,578.265129 C820.786079,577.18407 819.323905,576.57631 817.798854,576.57631 Z M817.932587,578.830657 C818.547337,578.828137 819.137779,579.070566 819.573371,579.504366 C820.008964,579.938166 820.253826,580.527603 820.253821,581.142358 C820.23535,582.023741 819.711076,582.81573 818.906932,583.17702 L820.444869,585.80393 L818.964247,585.80393 L817.560044,583.37762 L816.518832,583.37762 L816.518832,585.80393 L815.143286,585.80393 L815.143286,578.830657 L817.932587,578.830657 Z M817.932587,580.072489 L816.518832,580.072489 L816.518832,582.126255 L817.932587,582.126255 C818.46149,582.075184 818.86509,581.630735 818.86509,581.099372 C818.86509,580.56801 818.46149,580.12356 817.932587,580.072489 Z" id="Combined-Shape"></path>
        </g>
    </g>
</svg>